<svg xmlns="http://www.w3.org/2000/svg" xmlns:xlink="http://www.w3.org/1999/xlink" width="50" height="50"><defs><linearGradient id="a"><stop offset="0" stop-color="#24f7bc"/><stop offset="1" stop-color="#24c4fc"/></linearGradient><linearGradient id="b"><stop offset="0" stop-color="#ff1679"/><stop offset="1" stop-color="#ff770b"/></linearGradient><linearGradient id="c" x1="992.183" x2="1019.298" y1="516.081" y2="545.959" gradientTransform="matrix(1.53785 0 0 1.53785 -1522.705 211.343)" gradientUnits="userSpaceOnUse" xlink:href="#b"/></defs><g transform="translate(0 -1004.362)"><rect width="48" height="48" y="1004.362" fill="url(#c)" rx="10.144" ry="10.144"/><path fill="#fff" style="text-indent:0;text-align:start;line-height:normal;text-transform:none;block-progression:tb" d="m 20.745117,1013.1434 c -2.75747,0 -4.996093,2.2235 -4.996093,4.9688 l 0,2.0917 0,0.4414 -1.453125,0 -1.546875,0 c -0.28565,0 -0.5,0.2145 -0.5,0.5 l 0,20 c 0,0.2858 0.21429,0.5 0.5,0.5 l 10.999999,0 0,-12.543 c 0,-0.1011 0.06682,-0.1659 0.167969,-0.1659 l 1.03125,0 0.804687,0 0.0098,0 c 0.0167,-1.9265 1.39278,-3.7979 3.486328,-4.2598 l 0,-3.5313 c 0,-0.2855 -0.214352,-0.5 -0.5,-0.5 l -1.480469,0 -1.523437,0 0,1.0684 c 0.86023,0.2234 1.503906,1.0048 1.503906,1.9316 0,1.0987 -0.901353,2 -2,2 -1.098647,0 -2,-0.9013 -2,-2 0,-0.9239 0.639816,-1.7036 1.496094,-1.9297 l 0,-1.0117 0.996094,0 0,-0.5 0,-2.0917 c 0,-2.7453 -2.238607,-4.9688 -4.996094,-4.9688 z m 0,1 c 2.224109,0 3.996094,1.7637 3.996094,3.9688 l 0,2.0917 0,0.4414 -0.992188,0 -6,0 -0.996094,0 0,1.0703 c 0.85627,0.2262 1.496094,1.0058 1.496094,1.9297 0,1.0987 -0.90135,2 -2,2 -1.098649,0 -1.999999,-0.9013 -1.999999,-2 0,-0.9268 0.643676,-1.7083 1.503906,-1.9316 l 0,-1.0098 0.996093,0 0,-0.5 0,-2.0917 c 0,-2.2051 1.772004,-3.9688 3.996094,-3.9688 z m -4.496094,8.502 c -0.558209,0 -0.999999,0.4418 -0.999999,1 0,0.5582 0.44179,1 0.999999,1 0.55821,0 1,-0.4418 1,-1 0,-0.5582 -0.44179,-1 -1,-1 z m 9,0 c -0.558207,0 -1,0.4418 -1,1 0,0.5582 0.441793,1 1,1 0.558207,0 1,-0.4418 1,-1 0,-0.5582 -0.441793,-1 -1,-1 z m 5.001953,2.9102 c -1.927497,0 -3.498047,1.5583 -3.498047,3.4785 l 0,0.3652 0,0.5 1,0 0,-0.5 0,-0.3652 c 0,-1.3801 1.103804,-2.4785 2.498047,-2.4785 1.394252,0 2.498047,1.0985 2.498047,2.4785 l 0,0.3652 0,0.5 1,0 0,-0.5 0,-0.3652 c 0,-1.9202 -1.570543,-3.4785 -3.498047,-3.4785 z m -5.333984,4.3593 c -0.101147,0 -0.167969,0.065 -0.167969,0.1661 l 0,13.3339 c 0,0.101 0.06682,0.1661 0.167969,0.1661 l 10.667969,0 c 0.101145,0 0.166015,-0.065 0.166015,-0.1661 l 0,-13.3339 c 0,-0.101 -0.06487,-0.1661 -0.166015,-0.1661 l -0.988282,0 -0.847656,0 0,0.4258 c 0.579955,0.208 1.001978,0.7607 1.001953,1.4082 -5.1e-5,0.8225 -0.677481,1.5 -1.5,1.5 -0.822519,0 -1.49995,-0.6775 -1.5,-1.5 -2.5e-5,-0.6462 0.4199,-1.1992 0.998047,-1.4082 l 0,-0.4258 -0.498047,0 -4,0 -0.498047,0 0,0.4278 c 0.577478,0.2096 0.998072,0.7608 0.998047,1.4062 -5.1e-5,0.8225 -0.679434,1.5 -1.501953,1.5 -0.82252,0 -1.49995,-0.6775 -1.5,-1.5 -2.5e-5,-0.6484 0.422763,-1.2028 1.003906,-1.4102 l 0,-0.4239 -0.804687,0 -1.03125,0 z m 2.332031,1.334 c -0.282257,0 -0.500011,0.218 -0.5,0.5 1.7e-5,0.2819 0.217764,0.5 0.5,0.5 0.282235,0 0.501936,-0.2181 0.501953,-0.5 1.1e-5,-0.282 -0.219696,-0.5 -0.501953,-0.5 z m 6.001953,0 c -0.282257,0 -0.500011,0.218 -0.5,0.5 1.7e-5,0.2819 0.217764,0.5 0.5,0.5 0.282236,0 0.499983,-0.2181 0.5,-0.5 1.1e-5,-0.282 -0.217743,-0.5 -0.5,-0.5 z" color="#000" font-family="sans-serif" font-weight="400" overflow="visible"/></g></svg>