<svg id="SvgjsSvg1001" width="288" height="288" xmlns="http://www.w3.org/2000/svg" version="1.1" xmlns:xlink="http://www.w3.org/1999/xlink" xmlns:svgjs="http://svgjs.com/svgjs"><defs id="SvgjsDefs1002"></defs><g id="SvgjsG1008" transform="matrix(0.9167,0,0,0.9167,11.994115152740477,11.99520254211427)"><svg xmlns="http://www.w3.org/2000/svg" xmlns:xlink="http://www.w3.org/1999/xlink" width="288" height="288" viewBox="0 0 32 32"><defs><linearGradient id="b" x1="5.288" x2="26.712" y1="19" y2="19" gradientUnits="userSpaceOnUse"><stop offset="0" stop-color="#ff3b65" class="stopColorec3bff svgShape"></stop><stop offset="1" stop-color="#ff2a4b" class="stopColor662d91 svgShape"></stop></linearGradient><linearGradient id="a" x1="16" x2="16" y1="3" y2="14" gradientUnits="userSpaceOnUse"><stop offset="0" stop-color="#ffff00" class="stopColorff0 svgShape"></stop><stop offset="1" stop-color="#f7931e" class="stopColorf7931e svgShape"></stop></linearGradient><linearGradient id="c" x1="13" x2="19" y1="22" y2="22" xlink:href="#a"></linearGradient></defs><path fill="url(#b)" d="M25.832,10.151A3.457,3.457,0,0,0,23.258,9H8.742a3.455,3.455,0,0,0-3.433,3.836L6.764,25.927A3.45,3.45,0,0,0,10.2,29H21.8a3.45,3.45,0,0,0,3.433-3.073l1.455-13.091A3.461,3.461,0,0,0,25.832,10.151Z"></path><path fill="url(#a)" d="M20,14a1,1,0,0,1-1-1V8a3,3,0,0,0-6,0v5a1,1,0,0,1-2,0V8A5,5,0,0,1,21,8v5A1,1,0,0,1,20,14Z"></path><path fill="url(#c)" d="M18,23H14a1,1,0,0,1,0-2h4a1,1,0,0,1,0,2Z"></path></svg></g></svg>