<svg xmlns="http://www.w3.org/2000/svg" width="500" height="500" viewBox="0 0 500 500" version="1.1">
	<path d="M 228 37.123 C 198.901 40.471, 167.514 51.381, 143.500 66.494 C 129.669 75.198, 120.503 82.416, 108.642 93.946 C 90.152 111.917, 78.356 128.075, 67.352 150.500 C 44.960 196.137, 40.320 246.951, 54.034 296.372 C 75.527 373.828, 142.579 432.239, 222.852 443.436 C 237.469 445.474, 264.531 445.474, 279.148 443.436 C 352.730 433.173, 415.212 383.587, 442.039 314.166 C 468.068 246.808, 456.170 169.755, 410.975 113 C 402.629 102.518, 385.028 85.284, 375 77.774 C 344.560 54.977, 309.914 41.203, 272.500 37.022 C 261.932 35.841, 238.678 35.894, 228 37.123 M 310 163.428 C 291.767 167.292, 277.176 177.016, 266.897 192.152 C 262.831 198.140, 253.042 217.490, 253.014 219.595 C 252.991 221.413, 249.393 224.088, 247.796 223.475 C 246.975 223.160, 244.110 218.987, 241.429 214.201 C 220.811 177.392, 203.212 164.947, 171.500 164.751 C 155.604 164.653, 141.651 168.952, 128.505 177.997 C 110.848 190.145, 98.499 212.146, 96.336 235.308 C 95.676 242.373, 96.734 253.731, 97.924 252.364 C 98.338 251.889, 99.921 248.011, 101.441 243.746 C 102.962 239.481, 105.893 233.406, 107.955 230.246 C 112.126 223.854, 121.959 214.119, 129.313 209.102 C 152.539 193.253, 186.370 191.835, 209.898 205.724 C 221.329 212.471, 231.509 223.953, 242.726 242.750 C 245.762 247.838, 248.852 252, 249.593 252 C 250.334 252, 252.497 248.630, 254.400 244.511 C 262.192 227.645, 274.907 211.553, 286.312 204.123 C 305.355 191.716, 335.288 190.192, 358.481 200.449 C 374.139 207.374, 388.997 222.348, 399.213 241.500 L 402.947 248.500 402.961 242.500 C 402.981 233.187, 399.655 219.192, 395.122 209.520 C 384.663 187.199, 367.591 171.576, 346.500 165.022 C 337.517 162.231, 319.386 161.439, 310 163.428 M 308.216 231.019 C 288.063 236.299, 271.869 251.458, 259.907 276.240 C 257.714 280.783, 255.361 285.625, 254.677 287 C 252.755 290.863, 249.453 290.778, 247.405 286.812 C 242.528 277.372, 225.741 253.976, 220.092 248.746 C 200.812 230.896, 166.132 226.665, 140.397 239.024 C 127.730 245.107, 113.075 259.908, 106.193 273.571 C 100.740 284.394, 97.376 301.839, 98.650 312.680 L 99.263 317.895 102.588 310.956 C 117.391 280.068, 142.674 263.031, 174 262.833 C 186.643 262.753, 195.314 264.668, 206.500 270.011 C 219.518 276.228, 231.383 288.522, 245.336 310.250 C 248.427 315.063, 251.607 319, 252.403 319 C 253.258 319, 256.591 313.572, 260.539 305.750 C 268.084 290.801, 271.760 285.369, 278.766 278.816 C 293.997 264.569, 313.548 258.281, 334.375 260.932 C 365.324 264.871, 383.639 277.397, 400.499 306.154 L 405.978 315.500 405.982 309.500 C 405.998 278.635, 387.252 248.840, 359.705 235.949 C 345.589 229.344, 322.901 227.171, 308.216 231.019" stroke="none" fill="black" fill-rule="evenodd"/>
</svg>